<mxfile host="app.diagrams.net" modified="2020-12-27T15:02:17.185Z" agent="5.0 (Windows NT 10.0; Win64; x64) AppleWebKit/537.36 (KHTML, like Gecko) Chrome/87.0.4280.88 Safari/537.36" etag="8MOI_TVqQTro-EKs4NOa" version="14.1.2" type="github">
  <diagram id="1KhGkkn-QOeIzjS6CLSn" name="Page-1">
    <mxGraphModel dx="1422" dy="804" grid="0" gridSize="10" guides="1" tooltips="1" connect="1" arrows="1" fold="1" page="1" pageScale="1" pageWidth="827" pageHeight="1169" math="0" shadow="0">
      <root>
        <mxCell id="0" />
        <mxCell id="1" parent="0" />
        <mxCell id="qIGibRaf9GiTU_Vb1KLA-1" value="" style="group" vertex="1" connectable="0" parent="1">
          <mxGeometry x="89" y="140" width="650" height="350" as="geometry" />
        </mxCell>
        <mxCell id="qIGibRaf9GiTU_Vb1KLA-2" value="&lt;p style=&quot;line-height: 120%&quot;&gt;&lt;/p&gt;&lt;div style=&quot;font-size: 22px&quot; class=&quot;cs_cursor&quot;&gt;&lt;font style=&quot;font-size: 22px&quot; color=&quot;#990000&quot;&gt;&lt;b&gt;public static Singleton getInstance() {&lt;/b&gt;&lt;/font&gt;&lt;/div&gt;&lt;div style=&quot;font-size: 22px&quot; class=&quot;cs_cursor&quot;&gt;&lt;font style=&quot;font-size: 22px&quot;&gt;&lt;b&gt;&lt;font color=&quot;#990000&quot;&gt;&amp;nbsp; &amp;nbsp; &amp;nbsp; &amp;nbsp; &lt;/font&gt;&lt;font color=&quot;#000000&quot;&gt;//第一次判断，当 singleton 为空时加锁，否则直接返回实例&lt;/font&gt;&lt;/b&gt;&lt;/font&gt;&lt;/div&gt;&lt;div style=&quot;font-size: 22px&quot; class=&quot;cs_cursor&quot;&gt;&lt;font style=&quot;font-size: 22px&quot; color=&quot;#990000&quot;&gt;&lt;b&gt;&amp;nbsp; &amp;nbsp; &amp;nbsp; &amp;nbsp; if (singleton == null) {&lt;/b&gt;&lt;/font&gt;&lt;/div&gt;&lt;div style=&quot;font-size: 22px&quot; class=&quot;cs_cursor&quot;&gt;&lt;font style=&quot;font-size: 22px&quot; color=&quot;#990000&quot;&gt;&lt;b&gt;&amp;nbsp; &amp;nbsp; &amp;nbsp; &amp;nbsp; &amp;nbsp; &amp;nbsp; synchronized (Singleton.class) {&lt;/b&gt;&lt;/font&gt;&lt;/div&gt;&lt;div style=&quot;font-size: 22px&quot; class=&quot;cs_cursor&quot;&gt;&lt;font style=&quot;font-size: 22px&quot;&gt;&lt;b&gt;&lt;font color=&quot;#990000&quot;&gt;&amp;nbsp; &amp;nbsp; &amp;nbsp; &amp;nbsp; &amp;nbsp; &amp;nbsp; &amp;nbsp; &amp;nbsp; &lt;/font&gt;&lt;font color=&quot;#000000&quot;&gt;//第二次判断，当抢到锁时再判断 singleton 是否为空&lt;/font&gt;&lt;/b&gt;&lt;/font&gt;&lt;/div&gt;&lt;div style=&quot;font-size: 22px&quot; class=&quot;cs_cursor&quot;&gt;&lt;font style=&quot;font-size: 22px&quot; color=&quot;#990000&quot;&gt;&lt;b&gt;&amp;nbsp; &amp;nbsp; &amp;nbsp; &amp;nbsp; &amp;nbsp; &amp;nbsp; &amp;nbsp; &amp;nbsp; if (singleton == null) {&lt;/b&gt;&lt;/font&gt;&lt;/div&gt;&lt;div style=&quot;font-size: 22px&quot; class=&quot;cs_cursor&quot;&gt;&lt;font style=&quot;font-size: 22px&quot; color=&quot;#990000&quot;&gt;&lt;b&gt;&amp;nbsp; &amp;nbsp; &amp;nbsp; &amp;nbsp; &amp;nbsp; &amp;nbsp; &amp;nbsp; &amp;nbsp; &amp;nbsp; &amp;nbsp; singleton = new Singleton();&lt;/b&gt;&lt;/font&gt;&lt;/div&gt;&lt;div style=&quot;font-size: 22px&quot; class=&quot;cs_cursor&quot;&gt;&lt;font style=&quot;font-size: 22px&quot; color=&quot;#990000&quot;&gt;&lt;b&gt;&amp;nbsp; &amp;nbsp; &amp;nbsp; &amp;nbsp; &amp;nbsp; &amp;nbsp; &amp;nbsp; &amp;nbsp; }&lt;/b&gt;&lt;/font&gt;&lt;/div&gt;&lt;div style=&quot;font-size: 22px&quot; class=&quot;cs_cursor&quot;&gt;&lt;font style=&quot;font-size: 22px&quot; color=&quot;#990000&quot;&gt;&lt;b&gt;&amp;nbsp; &amp;nbsp; &amp;nbsp; &amp;nbsp; &amp;nbsp; &amp;nbsp; }&lt;/b&gt;&lt;/font&gt;&lt;/div&gt;&lt;div style=&quot;font-size: 22px&quot; class=&quot;cs_cursor&quot;&gt;&lt;font style=&quot;font-size: 22px&quot; color=&quot;#990000&quot;&gt;&lt;b&gt;&amp;nbsp; &amp;nbsp; &amp;nbsp; &amp;nbsp; }&lt;/b&gt;&lt;/font&gt;&lt;/div&gt;&lt;div style=&quot;font-size: 22px&quot; class=&quot;cs_cursor&quot;&gt;&lt;font style=&quot;font-size: 22px&quot; color=&quot;#990000&quot;&gt;&lt;b&gt;&amp;nbsp; &amp;nbsp; &amp;nbsp; &amp;nbsp; return singleton;&lt;/b&gt;&lt;/font&gt;&lt;/div&gt;&lt;div style=&quot;font-size: 22px&quot; class=&quot;cs_cursor&quot;&gt;&lt;font style=&quot;font-size: 22px&quot; color=&quot;#990000&quot;&gt;&lt;b&gt;&amp;nbsp; &amp;nbsp; }&lt;/b&gt;&lt;/font&gt;&lt;/div&gt;&lt;p&gt;&lt;/p&gt;" style="shape=note;strokeWidth=2;fontSize=14;size=20;whiteSpace=wrap;html=1;fillColor=#fff2cc;strokeColor=#d6b656;fontColor=#666600;align=left;" vertex="1" parent="qIGibRaf9GiTU_Vb1KLA-1">
          <mxGeometry width="650" height="350" as="geometry" />
        </mxCell>
        <mxCell id="qIGibRaf9GiTU_Vb1KLA-3" value="1" style="ellipse;whiteSpace=wrap;html=1;aspect=fixed;strokeWidth=2;fontFamily=Tahoma;spacingBottom=4;spacingRight=2;strokeColor=#432D57;fillColor=#76608a;fontColor=#ffffff;" vertex="1" parent="qIGibRaf9GiTU_Vb1KLA-1">
          <mxGeometry x="290" y="70" width="30" height="30" as="geometry" />
        </mxCell>
        <mxCell id="qIGibRaf9GiTU_Vb1KLA-4" value="2" style="ellipse;whiteSpace=wrap;html=1;aspect=fixed;strokeWidth=2;fontFamily=Tahoma;spacingBottom=4;spacingRight=2;strokeColor=#432D57;fillColor=#76608a;fontColor=#ffffff;" vertex="1" parent="qIGibRaf9GiTU_Vb1KLA-1">
          <mxGeometry x="430" y="90" width="30" height="30" as="geometry" />
        </mxCell>
        <mxCell id="qIGibRaf9GiTU_Vb1KLA-5" value="3" style="ellipse;whiteSpace=wrap;html=1;aspect=fixed;strokeWidth=2;fontFamily=Tahoma;spacingBottom=4;spacingRight=2;strokeColor=#432D57;fillColor=#76608a;fontColor=#ffffff;" vertex="1" parent="qIGibRaf9GiTU_Vb1KLA-1">
          <mxGeometry x="340" y="150" width="30" height="30" as="geometry" />
        </mxCell>
        <mxCell id="qIGibRaf9GiTU_Vb1KLA-6" value="&lt;font size=&quot;1&quot;&gt;&lt;b style=&quot;font-size: 20px&quot;&gt;线程 A&lt;/b&gt;&lt;/font&gt;" style="rounded=1;whiteSpace=wrap;html=1;strokeWidth=2;fillWeight=4;hachureGap=8;hachureAngle=45;fillColor=#dae8fc;sketch=1;shadow=0;opacity=50;strokeColor=#6c8ebf;" vertex="1" parent="1">
          <mxGeometry x="216" y="551" width="120" height="60" as="geometry" />
        </mxCell>
        <mxCell id="qIGibRaf9GiTU_Vb1KLA-7" value="&lt;font size=&quot;1&quot;&gt;&lt;b style=&quot;font-size: 20px&quot;&gt;线程 B&lt;/b&gt;&lt;/font&gt;" style="rounded=1;whiteSpace=wrap;html=1;strokeWidth=2;fillWeight=4;hachureGap=8;hachureAngle=45;fillColor=#fff2cc;sketch=1;shadow=0;opacity=50;strokeColor=#d6b656;" vertex="1" parent="1">
          <mxGeometry x="533" y="551" width="120" height="60" as="geometry" />
        </mxCell>
        <mxCell id="qIGibRaf9GiTU_Vb1KLA-13" value="&lt;b style=&quot;font-size: 18px&quot;&gt;1：分配对象内存空间&lt;/b&gt;" style="rounded=1;whiteSpace=wrap;html=1;shadow=0;comic=1;opacity=50;sketch=1;" vertex="1" parent="1">
          <mxGeometry x="189" y="670" width="174" height="60" as="geometry" />
        </mxCell>
        <mxCell id="qIGibRaf9GiTU_Vb1KLA-14" value="&lt;b style=&quot;font-size: 18px&quot;&gt;3：设置 instance &lt;br&gt;指向内存空间&lt;/b&gt;" style="rounded=1;whiteSpace=wrap;html=1;shadow=0;comic=1;opacity=50;sketch=1;" vertex="1" parent="1">
          <mxGeometry x="192" y="752" width="174" height="60" as="geometry" />
        </mxCell>
        <mxCell id="qIGibRaf9GiTU_Vb1KLA-15" value="&lt;b style=&quot;font-size: 18px&quot;&gt;2：初始化对象&lt;/b&gt;" style="rounded=1;whiteSpace=wrap;html=1;shadow=0;comic=1;opacity=50;sketch=1;" vertex="1" parent="1">
          <mxGeometry x="192" y="989" width="174" height="60" as="geometry" />
        </mxCell>
        <mxCell id="qIGibRaf9GiTU_Vb1KLA-16" value="&lt;b style=&quot;font-size: 18px&quot;&gt;4：线程 A &lt;br&gt;初次访问对象&lt;/b&gt;" style="rounded=1;whiteSpace=wrap;html=1;shadow=0;comic=1;opacity=50;sketch=1;" vertex="1" parent="1">
          <mxGeometry x="189" y="1076" width="174" height="60" as="geometry" />
        </mxCell>
        <mxCell id="qIGibRaf9GiTU_Vb1KLA-24" style="edgeStyle=orthogonalEdgeStyle;rounded=0;orthogonalLoop=1;jettySize=auto;html=1;exitX=0;exitY=0.5;exitDx=0;exitDy=0;entryX=0;entryY=0.5;entryDx=0;entryDy=0;strokeWidth=4;endArrow=none;endFill=0;" edge="1" parent="1" source="qIGibRaf9GiTU_Vb1KLA-17" target="qIGibRaf9GiTU_Vb1KLA-19">
          <mxGeometry relative="1" as="geometry" />
        </mxCell>
        <mxCell id="qIGibRaf9GiTU_Vb1KLA-17" value="&lt;span style=&quot;font-size: 18px&quot;&gt;&lt;b class=&quot;cs_cursor&quot;&gt;判断 instance &lt;br&gt;是否为空&lt;/b&gt;&lt;/span&gt;" style="rounded=1;whiteSpace=wrap;html=1;shadow=0;comic=1;opacity=50;sketch=1;" vertex="1" parent="1">
          <mxGeometry x="506" y="812" width="174" height="60" as="geometry" />
        </mxCell>
        <mxCell id="qIGibRaf9GiTU_Vb1KLA-19" value="&lt;b style=&quot;font-size: 18px&quot;&gt;线程 B&lt;br&gt;初次访问对象&lt;/b&gt;" style="rounded=1;whiteSpace=wrap;html=1;shadow=0;comic=1;opacity=50;sketch=1;" vertex="1" parent="1">
          <mxGeometry x="506" y="900" width="174" height="60" as="geometry" />
        </mxCell>
        <mxCell id="qIGibRaf9GiTU_Vb1KLA-20" value="" style="shape=curlyBracket;whiteSpace=wrap;html=1;rounded=1;shadow=0;comic=1;sketch=0;opacity=50;" vertex="1" parent="1">
          <mxGeometry x="161" y="779" width="30" height="240" as="geometry" />
        </mxCell>
        <mxCell id="qIGibRaf9GiTU_Vb1KLA-21" value="&lt;b&gt;&lt;font style=&quot;font-size: 19px&quot;&gt;执行了指令重排&lt;/font&gt;&lt;/b&gt;" style="text;html=1;align=center;verticalAlign=middle;resizable=0;points=[];autosize=1;fillColor=#f8cecc;strokeColor=#b85450;" vertex="1" parent="1">
          <mxGeometry x="16" y="889" width="143" height="20" as="geometry" />
        </mxCell>
        <mxCell id="qIGibRaf9GiTU_Vb1KLA-25" value="" style="shape=flexArrow;endArrow=classic;html=1;strokeWidth=4;" edge="1" parent="1">
          <mxGeometry width="50" height="50" relative="1" as="geometry">
            <mxPoint x="488" y="883" as="sourcePoint" />
            <mxPoint x="309" y="883" as="targetPoint" />
          </mxGeometry>
        </mxCell>
      </root>
    </mxGraphModel>
  </diagram>
</mxfile>
